<?xml version="1.0" standalone="no"?>
<!DOCTYPE svg PUBLIC "-//W3C//DTD SVG 20010904//EN"
 "http://www.w3.org/TR/2001/REC-SVG-20010904/DTD/svg10.dtd">
<svg version="1.0" xmlns="http://www.w3.org/2000/svg"
 width="640.000000pt" height="640.000000pt" viewBox="0 0 640.000000 640.000000"
 preserveAspectRatio="xMidYMid meet">

<g transform="translate(0.000000,640.000000) scale(0.100000,-0.100000)"
fill="#FFFFFF" stroke="none">
<path d="M2613 5080 c-163 -34 -251 -159 -408 -575 -80 -213 -119 -292 -181
-363 -52 -59 -87 -80 -191 -111 -96 -28 -118 -67 -68 -116 20 -21 31 -24 65
-20 101 13 202 67 281 152 94 100 134 173 204 373 127 360 232 525 334 525 80
0 172 -101 225 -245 13 -36 43 -117 66 -180 23 -63 69 -170 101 -236 32 -67
59 -126 59 -132 0 -15 -76 -75 -127 -101 -24 -12 -64 -24 -89 -28 -56 -7 -74
-24 -74 -68 0 -55 31 -69 116 -54 76 12 143 42 216 95 27 19 52 34 57 34 5 0
22 -11 38 -24 56 -47 178 -97 270 -111 37 -6 46 -3 68 19 29 29 32 52 9 84
-10 15 -25 22 -48 22 -48 0 -114 26 -175 68 -78 55 -80 60 -44 129 17 32 59
128 93 213 155 383 207 472 297 506 59 23 88 12 155 -56 73 -74 114 -157 189
-378 87 -257 154 -378 270 -488 74 -69 132 -101 211 -114 75 -13 103 -5 118
36 20 51 -11 80 -110 104 -63 15 -128 66 -188 146 -77 102 -104 160 -172 364
-94 284 -148 380 -261 470 -71 56 -142 75 -215 59 -80 -18 -138 -61 -206 -153
-76 -103 -85 -121 -169 -344 -71 -188 -115 -283 -135 -289 -15 -5 -83 148
-139 312 -66 197 -114 292 -184 368 -87 93 -166 126 -258 107z"/>
<path d="M1765 3658 c-3 -7 -4 -467 -3 -1023 l3 -1010 1429 -3 c1048 -1 1432
1 1442 9 19 16 21 2008 2 2027 -18 18 -501 17 -517 -1 -8 -10 -12 -231 -13
-768 l-3 -754 -315 0 -315 0 -3 754 c-1 543 -5 758 -13 768 -10 11 -61 13
-263 11 l-251 -3 -5 -765 c-3 -421 -6 -766 -8 -768 -1 -1 -147 -1 -324 0
l-323 3 -3 754 c-1 537 -5 758 -13 768 -16 18 -497 19 -504 1z"/>
</g>
</svg>
